<svg width="30" height="30" viewBox="0 0 30 30" fill="none" xmlns="http://www.w3.org/2000/svg">
<path d="M26.7857 0H3.21429C1.43973 0 0 1.43973 0 3.21429V26.7857C0 28.5603 1.43973 30 3.21429 30H26.7857C28.5603 30 30 28.5603 30 26.7857V3.21429C30 1.43973 28.5603 0 26.7857 0ZM26.7857 26.7857H3.21429V3.21429H26.7857V26.7857ZM24.3817 10.6004L12.8237 22.0647C12.5089 22.3795 12 22.3728 11.6853 22.058L5.60491 15.9308C5.29018 15.6161 5.29688 15.1071 5.61161 14.7924L7.1317 13.2857C7.44643 12.971 7.95536 12.9777 8.27009 13.2924L12.2746 17.3304L21.7433 7.94196C22.058 7.62723 22.567 7.63393 22.8817 7.94866L24.3884 9.46875C24.7031 9.77678 24.6964 10.2857 24.3817 10.6004Z" fill="#707DF2"/>
</svg>
