<svg width="32" height="32" viewBox="0 0 32 32" fill="none" xmlns="http://www.w3.org/2000/svg">
<path d="M10.1 22.9999C10.2862 22.8125 10.3907 22.5591 10.3907 22.2949C10.3907 22.0307 10.2862 21.7773 10.1 21.5899L5.49995 16.9999H29.0499C29.3152 16.9999 29.5695 16.8946 29.7571 16.707C29.9446 16.5195 30.0499 16.2651 30.0499 15.9999C30.0499 15.7347 29.9446 15.4803 29.7571 15.2928C29.5695 15.1053 29.3152 14.9999 29.0499 14.9999H5.52995L10.1 10.4299C10.2896 10.2416 10.3966 9.98568 10.3976 9.71844C10.3985 9.45121 10.2933 9.19454 10.1049 9.00491C9.91665 8.81528 9.66073 8.70822 9.39349 8.70728C9.12625 8.70634 8.86958 8.81161 8.67995 8.99991L2.31995 15.3699C2.15202 15.5386 2.05774 15.7669 2.05774 16.0049C2.05774 16.2429 2.15202 16.4712 2.31995 16.6399L8.67995 22.9999C8.77291 23.0936 8.88351 23.168 9.00537 23.2188C9.12723 23.2696 9.25794 23.2957 9.38995 23.2957C9.52196 23.2957 9.65267 23.2696 9.77453 23.2188C9.89639 23.168 10.007 23.0936 10.1 22.9999Z" fill="#707DF2"/>
</svg>
