<svg width="35" height="35" viewBox="0 0 35 35" fill="none" xmlns="http://www.w3.org/2000/svg">
<g clip-path="url(#clip0)">
<path d="M29.1613 12.8654C27.5437 6.42132 21.0085 2.50872 14.5644 4.12633C9.52854 5.3905 5.87192 9.74294 5.49516 14.9214C1.91947 15.511 -0.501216 18.8877 0.0884563 22.4634C0.612647 25.6422 3.36709 27.9702 6.58879 27.9574H12.0569V25.7702H6.58879C4.17282 25.7702 2.21427 23.8116 2.21427 21.3956C2.21427 18.9797 4.17282 17.0211 6.58879 17.0211C7.19282 17.0211 7.68242 16.5315 7.68242 15.9275C7.67695 10.4915 12.0793 6.08038 17.5153 6.07498C22.2209 6.07026 26.2716 9.39695 27.1819 14.0136C27.2717 14.4746 27.6458 14.8268 28.1114 14.8885C31.1013 15.3143 33.1798 18.0832 32.7541 21.073C32.3718 23.7577 30.0796 25.7566 27.3678 25.7702H22.9932V27.9574H27.3678C31.5957 27.9446 35.0128 24.5068 34.9999 20.2788C34.9893 16.7594 32.5803 13.7006 29.1613 12.8654Z" fill="white"/>
<path d="M16.7486 17.3384L12.3741 21.7129L13.9161 23.255L16.4315 20.7506V31.2385H18.6187V20.7506L21.1231 23.255L22.6651 21.7129L18.2906 17.3384C17.864 16.9144 17.1752 16.9144 16.7486 17.3384Z" fill="white"/>
</g>
<defs>
<clipPath id="clip0">
<rect width="35" height="35" fill="white"/>
</clipPath>
</defs>
</svg>
