<svg width="35" height="35" viewBox="0 0 35 35" fill="none" xmlns="http://www.w3.org/2000/svg">
<g clip-path="url(#clip0)">
<path d="M33.7569 4.82815C33.0049 4.75959 32.3398 5.31364 32.2712 6.0656L32.0901 8.05273C29.0167 3.22615 23.6817 0 17.5 0C10.8499 0 4.98943 3.79545 2.08019 9.49197C1.73675 10.1644 2.00349 10.9879 2.67594 11.3314C3.34853 11.6748 4.17192 11.4082 4.51536 10.7356C6.97746 5.91466 11.9217 2.73438 17.5 2.73438C22.5844 2.73438 27.1728 5.382 29.8015 9.52984L27.8521 8.13757C27.2376 7.69877 26.3837 7.84109 25.9449 8.45551C25.5061 9.06999 25.6485 9.9238 26.2629 10.3627L32.1742 14.5846C33.0406 15.2022 34.2356 14.6368 34.3304 13.5962L34.9942 6.31388C35.0628 5.56186 34.5089 4.89672 33.7569 4.82815Z" fill="white"/>
<path d="M32.3241 23.6686C31.6515 23.3252 30.8281 23.5919 30.4846 24.2644C28.0225 29.0853 23.0783 32.2656 17.5 32.2656C12.4156 32.2656 7.8272 29.618 5.19851 25.4701L7.14792 26.8624C7.7624 27.3012 8.61621 27.1589 9.05507 26.5445C9.49387 25.93 9.35155 25.0762 8.73713 24.6373L2.82576 20.4154C1.96997 19.804 0.765338 20.3524 0.669635 21.4038L0.00579691 28.6861C-0.0627675 29.4381 0.491285 30.1032 1.24317 30.1718C1.99608 30.2402 2.66033 29.6856 2.72882 28.9343L2.90998 26.9472C5.98328 31.7738 11.3183 35 17.5 35C24.1501 35 30.0106 31.2045 32.9198 25.508C33.2632 24.8356 32.9965 24.012 32.3241 23.6686Z" fill="white"/>
</g>
<defs>
<clipPath id="clip0">
<rect width="35" height="35" fill="white"/>
</clipPath>
</defs>
</svg>
